# xmcd CD database file
#
# Track frame offsets:
#	150
#	22095
#	33942
#	45865
#	58330
#	72680
#	90512
#	103787
#	121310
#	132997
#	148552
#	170152
#	204290
#	207585
#
# Disc length: 2787 seconds
#
# Revision: 1
# Processed by: cddbd v1.5.2PL0 Copyright (c) Steve Scherf et al.
# Submitted via: CDex 1.51
#
DISCID=d20ae10e
DTITLE=Hot Mountain Orchestra - Pentaton
DYEAR=1998
DGENRE=Jazz
TTITLE0=Pentaton
TTITLE1=Spinning Wheel
TTITLE2=Basin Street Blues
TTITLE3=Sweet Georgia Brown
TTITLE4=Jammin' The Blues
TTITLE5=Oye Como Va
TTITLE6=Smooth Operator
TTITLE7=Undecided
TTITLE8=Tuxedo Junction
TTITLE9=Birdland
TTITLE10=Monday
TTITLE11=Mr. Tritonus
TTITLE12=Pentaton
TTITLE13=nothing
EXTD=YEAR: 1998
EXTT0=
EXTT1=
EXTT2=
EXTT3=
EXTT4=
EXTT5=
EXTT6=
EXTT7=
EXTT8=
EXTT9=
EXTT10=
EXTT11=
EXTT12=
EXTT13=
PLAYORDER=
